<svg width="120" height="120" viewBox="0 0 120 120" fill="none" xmlns="http://www.w3.org/2000/svg">
<g opacity="0.5">
<path d="M110.567 93.4954L51.3806 58.7166L9.09143 83.3166L68.5938 118.153L110.567 93.4954Z" fill="#ADADAD"/>
<path d="M16.2992 55.8477V65.4704L6.32907 71.3649L6.01079 71.1792L6.37079 74.8162C6.47861 74.8359 6.22618 75.3536 6.33517 75.3536C6.65439 75.3536 6.97384 75.2693 7.25978 75.1007L16.2994 69.7563V77.1441L8.17618 81.8918L10.0085 85.0943L51.4078 60.8976L76.38 75.4434V75.8015H76.995L109.958 95.0014L111.786 91.7966L97.2007 83.301V75.2695L111.931 83.8628C112.116 83.9708 112.317 84.0304 112.522 84.0679V79.9366L97.201 70.999V61.9305L111.644 70.3562C111.916 70.5147 112.218 70.5931 112.522 70.5995L113.124 66.9596L97.201 57.6599V43.1528H93.5407V55.5246L80.0405 47.6488V34.3312H76.3805V45.5135L62.9827 37.6976V23.6861H59.3224V35.5623L53.2371 32.0122V20.5798H49.5769V32.1552L42.0727 36.5347V23.6861H38.4124V38.671L31.3971 42.7653V30.5175H27.7369V44.9015L19.9592 49.4409V37.0934H16.2992V51.5769L6.04782 57.5597L6.01056 57.5379V61.5397C6.02322 61.5399 6.03517 61.5447 6.04782 61.5447C6.36353 61.5447 6.6804 61.4615 6.96282 61.2967L16.2992 55.8477ZM80.04 65.2584L93.5403 73.1343V81.169L80.04 73.3053V65.2584ZM80.04 51.9191L93.5403 59.7949V68.8635L80.04 60.9876V51.9191ZM62.9822 55.307L76.38 63.1231V71.1733L62.9822 63.3692V55.307ZM62.9822 41.9677L76.38 49.7838V58.8526L62.9822 51.0367V41.9677ZM53.2367 49.6216L59.322 53.1717V61.2373L53.2367 57.6926V49.6216ZM53.2367 36.2823L59.322 39.8324V48.9014L53.2367 45.3513V36.2823ZM42.0727 54.5186L49.5764 50.0822V57.6945L42.0727 62.0801V54.5186ZM42.0727 40.8053L49.5764 36.4258V45.796L42.0727 50.2324V40.8053ZM31.3971 60.8301L38.4124 56.6827V64.2197L31.3971 68.32V60.8301ZM31.3971 47.0359L38.4124 42.9415V52.3966L31.3971 56.5442V47.0359ZM19.9592 67.5924L27.7369 62.9941V70.459L19.9592 75.0048V67.5924ZM19.9592 53.7114L27.7369 49.1721V58.7079L19.9592 63.3062V53.7114Z" fill="#DDDDDD"/>
<path d="M2.45789 49.1145L7.27968 83.7507C7.35843 84.3142 7.6896 84.8103 8.17804 85.0955L67.6434 119.753C67.6455 119.755 67.6479 119.756 67.65 119.757C67.6835 119.776 67.7189 119.791 67.7536 119.808C67.7918 119.827 67.8293 119.848 67.8684 119.864C67.8724 119.866 67.8764 119.867 67.8804 119.868C68.0974 119.955 68.3271 120 68.5573 120C68.5575 120 68.5577 120 68.5577 120C68.5582 120 68.5582 120 68.5582 120C68.8706 120 69.1852 119.921 69.4746 119.751L111.789 94.9991C111.793 94.9969 111.795 94.9941 111.799 94.992C111.899 94.9325 111.993 94.8643 112.08 94.7871C112.107 94.7627 112.129 94.7343 112.155 94.7085C112.21 94.6528 112.265 94.5969 112.314 94.5342C112.342 94.4977 112.364 94.4582 112.39 94.4198C112.428 94.362 112.466 94.3042 112.497 94.2414C112.519 94.1991 112.535 94.155 112.553 94.111C112.579 94.0487 112.604 93.9866 112.623 93.9208C112.638 93.8715 112.647 93.8213 112.657 93.7709C112.666 93.7275 112.68 93.6866 112.686 93.642L117.124 59.8871C117.257 58.8746 116.553 57.9451 115.55 57.8103C114.552 57.6741 113.629 58.3882 113.495 59.4006L112.258 68.81L104.619 73.2683V66.9373H100.958V75.4045L93.9431 79.4989V72.0794H90.2836V81.6351L82.5059 86.1745V78.1847H78.8459V88.3107L70.3877 93.247V85.3674H66.7275V93.2041L53.2366 85.334V77.1599H49.5764V83.1987L36.0759 75.3231V63.1897H32.4157V73.1878L19.0179 65.3719V55.954H15.3579V63.2366L7.48054 58.6411L6.08249 48.599L2.45789 49.1145ZM15.3579 67.5069V73.7626L9.07546 70.0976L8.12742 63.2887L15.3579 67.5069ZM32.4159 77.4584V83.7138L19.0181 75.8979V69.6422L32.4159 77.4584ZM32.4159 94.9519L19.0179 87.1434V80.1682L32.4157 87.9844L32.4159 94.9519ZM36.0759 90.1196L49.5762 97.9957V104.954L36.0759 97.0851V90.1196ZM49.5762 87.4697V93.7249L36.0759 85.8491V79.5936L49.5762 87.4697ZM66.7273 97.4754V103.73L53.2364 95.8602V89.605L66.7273 97.4754ZM104.619 94.92V88.1373L110.147 84.8693L109.176 92.2547L104.619 94.92ZM100.959 97.0609L93.9436 101.165V94.4487L100.959 90.301V97.0609ZM90.2836 103.305L82.5059 107.855V101.211L90.2836 96.6126V103.305ZM78.8456 109.996L70.3875 114.944V108.376L78.8456 103.375V109.996ZM78.8456 92.5817V99.0889L70.3875 104.09V97.5183L78.8456 92.5817ZM90.2836 85.9061V92.3267L82.5059 96.925V90.4455L90.2836 85.9061ZM100.959 79.6756V86.0151L93.9436 90.1627V83.7699L100.959 79.6756ZM111.65 73.436L110.758 80.2219L104.619 83.8512V77.5394L111.65 73.436ZM66.7273 114.95L53.2364 107.087V100.131L66.7273 108.001V114.95ZM10.7803 82.3421L9.72257 74.7454L15.3579 78.0329V85.01L10.7803 82.3421Z" fill="#C8CED6"/>
<path d="M0 38.1975V48.1944L68.5938 88.1819L120 58.1911V50.5512V49.942V48.1942L114.7 45.1024L51.3103 8.12057L0 38.1975ZM12.788 43.1745L51.3806 20.6279H51.4062L107.246 53.1255L68.6278 75.7733L12.788 43.1745Z" fill="#ADADAD"/>
<path d="M51.4062 20.6279V10.631L80.5683 27.6026L115.676 48.0926V48.1819L107.246 53.1255L51.4062 20.6279Z" fill="#878787"/>
<path d="M4.27008 38.1928L33.0052 21.3666L51.3806 10.631V20.6279L12.788 43.1745L4.27008 38.202V38.1928Z" fill="#AFAFAF"/>
<path d="M14.2605 47.3158C14.7656 47.3158 15.2733 47.1353 15.6795 46.7692L32.8364 31.3213L79.6247 4.02623C80.6459 3.43036 80.996 2.11073 80.4063 1.07909C79.8155 0.0479217 78.5095 -0.306616 77.4895 0.289254L30.5119 27.6952C30.3856 27.7686 30.2677 27.8553 30.1591 27.9529L12.8391 43.5476C11.9585 44.3398 11.8812 45.7039 12.6652 46.5935C13.0868 47.0714 13.6718 47.3158 14.2605 47.3158Z" fill="#C8CED6"/>
<path d="M61.6148 74.8487C61.9962 74.8487 62.3834 74.7452 62.7323 74.5285C63.7355 73.9037 64.0488 72.5744 63.4305 71.5596L40.2258 33.4898L83.7436 8.25154L106.938 42.6277C107.601 43.6113 108.932 43.8666 109.904 43.1959C110.879 42.524 111.13 41.1816 110.467 40.198L86.1588 4.17069C85.5298 3.23899 84.2941 2.95645 83.3316 3.51514L36.1903 30.8555C35.6888 31.1456 35.3266 31.6297 35.1837 32.1955C35.0419 32.7613 35.1323 33.3609 35.4349 33.8581L59.7942 73.823C60.198 74.484 60.8974 74.8487 61.6148 74.8487Z" fill="#C8CED6"/>
<path d="M40.009 28.3477C40.6298 28.3477 41.2601 28.1876 41.8366 27.8503L74.2526 8.92912C76.0029 7.90695 76.6022 5.64592 75.5906 3.87678C74.5802 2.10883 72.3415 1.50254 70.59 2.52424L38.1741 21.4455C36.4237 22.4676 35.8244 24.7287 36.836 26.4983C37.5141 27.6843 38.7436 28.3477 40.009 28.3477Z" fill="#878787"/>
<path d="M32.7828 31.0421C33.1425 31.0421 33.5084 30.9507 33.8431 30.7556L39.3739 27.547C40.3974 26.9535 40.7501 25.635 40.1625 24.6022C39.5764 23.5691 38.2716 23.2091 37.2483 23.8052L31.7175 27.0138C30.694 27.6073 30.3413 28.9258 30.9289 29.9586C31.3233 30.6532 32.0428 31.0421 32.7828 31.0421Z" fill="#C8CED6"/>
<path d="M45.5564 31.6129C46.1746 31.6129 46.8002 31.454 47.3744 31.1205L79.8461 12.2872C81.5999 11.2709 82.2051 9.01012 81.1985 7.23909C80.1916 5.46569 77.9554 4.85348 76.2028 5.87257L43.731 24.7059C41.9772 25.7219 41.3721 27.983 42.3787 29.754C43.0556 30.9457 44.2874 31.6129 45.5564 31.6129Z" fill="#7F7F7F"/>
<path d="M37.2556 34.884C37.6154 34.884 37.9812 34.7924 38.3159 34.5974L44.9403 30.7556C45.9626 30.1632 46.3165 28.8436 45.7289 27.8108C45.1428 26.7777 43.8368 26.4177 42.8147 27.0138L36.1904 30.8557C35.168 31.448 34.8141 32.7677 35.4017 33.8005C35.7961 34.4949 36.5157 34.884 37.2556 34.884Z" fill="#D1D1D1"/>
<path d="M57.2972 65.6113L59.4837 64.4023C59.4959 64.3956 59.5076 64.3885 59.5198 64.3824L59.5362 64.3731L59.5374 64.3748C60.2215 64.0286 61.0915 64.088 62.0398 64.6412C64.2404 65.9251 66.0244 69.3696 66.0244 72.3345C66.0244 73.0305 65.9229 73.6345 65.7439 74.1403L65.7455 74.1429L65.7425 74.1446C65.1582 75.7906 63.7222 76.3602 62.0396 75.3785C59.8388 74.0946 58.055 70.6501 58.055 67.685C58.055 67.3906 58.0772 67.1168 58.111 66.8549L57.2972 65.6113Z" fill="#AFAFAF"/>
<path d="M56.0152 68.8026C56.0152 71.7677 57.7993 75.2122 59.9998 76.4961C62.2006 77.78 63.9847 76.4172 63.9847 73.4521C63.9847 70.487 62.2006 67.0425 59.9998 65.7586C57.7993 64.4747 56.0152 65.8377 56.0152 68.8026Z" fill="#878787"/>
<path d="M104.808 35.14L106.754 34.0849C106.903 33.9741 107.065 33.8893 107.235 33.8242L107.262 33.8095L107.264 33.8121C107.911 33.5769 108.699 33.6733 109.55 34.1702C111.751 35.4541 113.535 38.8985 113.535 41.8634C113.535 44.1349 112.487 45.4607 111.007 45.3821L110.993 45.3908L110.987 45.3802C110.541 45.3525 110.058 45.2033 109.551 44.9077C107.35 43.6238 105.566 40.1793 105.566 37.2144C105.566 36.9525 105.585 36.7081 105.612 36.4717L104.808 35.14Z" fill="#A7A7A7"/>
<path d="M103.526 38.3313C103.526 41.2965 105.31 44.741 107.511 46.0248C109.711 47.3087 111.495 45.946 111.495 42.9808C111.495 40.0157 109.711 36.5712 107.511 35.2873C105.31 34.0035 103.526 35.3664 103.526 38.3313Z" fill="#878787"/>
<path d="M105.673 39.5842C105.673 40.9514 106.496 42.5396 107.511 43.1314C108.525 43.7233 109.348 43.095 109.348 41.728C109.348 40.3607 108.525 38.7726 107.511 38.1807C106.496 37.5886 105.673 38.2172 105.673 39.5842Z" fill="white"/>
<path d="M120 48.1942V58.1911L68.5938 88.1816V78.1847L120 48.1942Z" fill="#AFAFAF"/>
<path d="M0 38.1975V48.1942L68.5938 88.1816V78.1847L0 38.1975Z" fill="#878787"/>
<path d="M11.592 38.9355L13.7782 37.7267C13.7904 37.7201 13.8024 37.713 13.8148 37.7066L13.8312 37.6976L13.8321 37.6992C14.5163 37.353 15.3863 37.4124 16.3348 37.9657C18.5353 39.2495 20.3194 42.694 20.3194 45.6589C20.3194 46.3554 20.2177 46.9596 20.0386 47.4659L20.0407 47.4674L20.0377 47.4693C19.4534 49.1152 18.0174 49.6848 16.3348 48.7032C14.134 47.4193 12.3499 43.9748 12.3499 41.0097C12.3499 40.7153 12.3722 40.4415 12.4062 40.1796L11.592 38.9355Z" fill="#AFAFAF"/>
<path d="M10.3099 42.1266C10.3099 45.0917 12.094 48.5362 14.2945 49.8201C16.4953 51.1039 18.2794 49.7412 18.2794 46.7761C18.2794 43.8109 16.4953 40.3664 14.2945 39.0826C12.094 37.7987 10.3099 39.1617 10.3099 42.1266Z" fill="#878787"/>
<path d="M12.4573 43.3794C12.4573 44.7466 13.2799 46.3348 14.2945 46.9267C15.3092 47.5185 16.1318 46.8902 16.1318 45.5232C16.1318 44.156 15.3092 42.5678 14.2945 41.976C13.2799 41.3839 12.4573 42.0124 12.4573 43.3794Z" fill="white"/>
<path d="M58.1627 70.0555C58.1627 71.4227 58.9854 73.0109 60 73.6027C61.0148 74.1948 61.8372 73.5663 61.8372 72.1993C61.8372 70.832 61.0146 69.2438 60 68.652C58.9851 68.0599 58.1627 68.6885 58.1627 70.0555Z" fill="white"/>
</g>
</svg>
